<?xml version="1.0" encoding="UTF-8" standalone="no"?>
<!-- Created with Inkscape (http://www.inkscape.org/) -->

<svg
   xmlns:dc="http://purl.org/dc/elements/1.1/"
   xmlns:cc="http://creativecommons.org/ns#"
   xmlns:rdf="http://www.w3.org/1999/02/22-rdf-syntax-ns#"
   xmlns:svg="http://www.w3.org/2000/svg"
   xmlns="http://www.w3.org/2000/svg"
   xmlns:sodipodi="http://sodipodi.sourceforge.net/DTD/sodipodi-0.dtd"
   xmlns:inkscape="http://www.inkscape.org/namespaces/inkscape"
   sodipodi:docname="Autolevel.svg"
   inkscape:version="0.91 r13725"
   version="1.1"
   id="svg4160"
   viewBox="0 0 77.999997 104"
   height="104"
   width="78">
  <defs
     id="defs4162" />
  <sodipodi:namedview
     inkscape:window-maximized="1"
     inkscape:window-y="-8"
     inkscape:window-x="-8"
     inkscape:window-height="1137"
     inkscape:window-width="1920"
     showguides="true"
     units="px"
     showgrid="true"
     inkscape:current-layer="layer1"
     inkscape:document-units="px"
     inkscape:cy="50.513814"
     inkscape:cx="21.076087"
     inkscape:zoom="6.2026523"
     inkscape:pageshadow="2"
     inkscape:pageopacity="0.0"
     borderopacity="1.0"
     bordercolor="#666666"
     pagecolor="#ffffff"
     id="base">
    <inkscape:grid
       type="xygrid"
       id="grid4712" />
  </sodipodi:namedview>
  <metadata
     id="metadata4165">
    <rdf:RDF>
      <cc:Work
         rdf:about="">
        <dc:format>image/svg+xml</dc:format>
        <dc:type
           rdf:resource="http://purl.org/dc/dcmitype/StillImage" />
        <dc:title></dc:title>
      </cc:Work>
    </rdf:RDF>
  </metadata>
  <g
     inkscape:groupmode="layer"
     id="layer4"
     inkscape:label="Fondo"
     style="display:inline">
    <path
       style="fill:#232323;fill-opacity:1;fill-rule:evenodd;stroke:none;stroke-width:2;stroke-linecap:butt;stroke-linejoin:miter;stroke-miterlimit:4;stroke-dasharray:none;stroke-opacity:1"
       d="m -0.52001176,-0.76239738 79.52479476,0 0,105.53494738 -79.52479476,0 z"
       id="path4808"
       inkscape:connector-curvature="0" />
  </g>
  <g
     inkscape:groupmode="layer"
     id="layer1"
     inkscape:label="Simbolo">
    <path
       style="fill:none;fill-opacity:1;stroke:#ffffff;stroke-width:0;stroke-linecap:round;stroke-linejoin:round;stroke-miterlimit:4;stroke-dasharray:none;stroke-opacity:1"
       d="m 22.795553,16.619161 3.21242,-1.25 3.212421,1.25 0,47.687531 -3.212421,0.892857 -3.21242,-0.892857 z"
       id="rect4760-8"
       inkscape:connector-curvature="0"
       sodipodi:nodetypes="ccccccc" />
    <text
       xml:space="preserve"
       style="font-style:normal;font-variant:normal;font-weight:bold;font-stretch:normal;font-size:17.5px;line-height:125%;font-family:Calibri;-inkscape-font-specification:'Calibri, Bold';text-align:start;letter-spacing:0px;word-spacing:0px;writing-mode:lr-tb;text-anchor:start;display:inline;fill:#ffffff;fill-opacity:1;stroke:none;stroke-width:1px;stroke-linecap:butt;stroke-linejoin:miter;stroke-opacity:1"
       x="5.6110106"
       y="93.702385"
       id="text4803-5"
       sodipodi:linespacing="125%"><tspan
         sodipodi:role="line"
         id="tspan5251"
         x="5.6110106"
         y="93.702385">Autolevel</tspan></text>
    <rect
       style="fill:none;fill-opacity:1;fill-rule:nonzero;stroke:#ffffff;stroke-width:3;stroke-linecap:round;stroke-linejoin:round;stroke-miterlimit:4;stroke-dasharray:none;stroke-opacity:1"
       id="rect7837"
       width="51.899994"
       height="5.8285666"
       x="13.888781"
       y="39.777004" />
    <path
       style="fill:#232323;fill-opacity:1;fill-rule:evenodd;stroke:#fbb351;stroke-width:1.36491191;stroke-linecap:butt;stroke-linejoin:round;stroke-miterlimit:4;stroke-dasharray:none;stroke-opacity:1"
       d="m 7.548005,19.993455 8.214692,-7.874475 8.30088,7.792715 -3.286059,3.149792 -2.659605,-2.496887 0.110498,9.190042 -4.670963,0.05054 -0.110217,-9.166674 -2.578872,2.472206 -3.320354,-3.117258 z"
       id="path7561-4"
       inkscape:connector-curvature="0" />
    <circle
       style="fill:#fbb351;fill-opacity:1;fill-rule:nonzero;stroke:#ffffff;stroke-width:3;stroke-linecap:round;stroke-linejoin:round;stroke-miterlimit:4;stroke-dasharray:none;stroke-opacity:1"
       id="path8128"
       cx="-42.343403"
       cy="16.251245"
       r="5"
       transform="matrix(0.01077747,-0.99994192,0.99994192,0.01077747,0,0)" />
    <circle
       style="fill:#fbb351;fill-opacity:1;fill-rule:nonzero;stroke:#ffffff;stroke-width:3;stroke-linecap:round;stroke-linejoin:round;stroke-miterlimit:4;stroke-dasharray:none;stroke-opacity:1"
       id="path8128-4"
       cx="-41.635441"
       cy="63.60482"
       r="5"
       transform="matrix(0.01077747,-0.99994192,0.99994192,0.01077747,0,0)" />
    <path
       style="fill:#232323;fill-opacity:1;fill-rule:evenodd;stroke:#fbb351;stroke-width:1.36491191;stroke-linecap:butt;stroke-linejoin:round;stroke-miterlimit:4;stroke-dasharray:none;stroke-opacity:1"
       d="m 24.020817,65.218941 -8.214692,7.874475 -8.3008796,-7.792715 3.2860586,-3.149792 2.659605,2.496887 -0.110498,-9.190041 4.670963,-0.05054 0.110217,9.166675 2.578872,-2.472206 3.320354,3.117258 z"
       id="path7561-4-8"
       inkscape:connector-curvature="0" />
    <path
       style="fill:#232323;fill-opacity:1;fill-rule:evenodd;stroke:#fbb351;stroke-width:1.36491191;stroke-linecap:butt;stroke-linejoin:round;stroke-miterlimit:4;stroke-dasharray:none;stroke-opacity:1"
       d="m 71.02997,65.05772 -8.214692,7.874475 -8.30088,-7.792715 3.286059,-3.149792 2.659605,2.496887 -0.110498,-9.190041 4.670963,-0.05054 0.110217,9.166675 2.578872,-2.472206 3.320354,3.117258 z"
       id="path7561-4-1"
       inkscape:connector-curvature="0" />
    <path
       style="fill:#232323;fill-opacity:1;fill-rule:evenodd;stroke:#fbb351;stroke-width:1.36491191;stroke-linecap:butt;stroke-linejoin:round;stroke-miterlimit:4;stroke-dasharray:none;stroke-opacity:1"
       d="m 54.096078,20.462152 8.214692,-7.874475 8.30088,7.792715 -3.286059,3.149792 -2.659605,-2.496887 0.110498,9.190042 -4.670963,0.05054 -0.110217,-9.166674 -2.578872,2.472206 -3.320354,-3.117258 z"
       id="path7561-4-4"
       inkscape:connector-curvature="0" />
    <g
       id="g4603"
       transform="matrix(0.44958258,-0.18441485,0.18992655,0.43653561,39.096954,22.89965)"
       inkscape:label="Gear8"
       style="fill:#ffffff;fill-opacity:1;stroke:#ffffff;stroke-width:3.2446599;stroke-linecap:round;stroke-linejoin:round;stroke-miterlimit:4;stroke-dasharray:none;stroke-opacity:1">
      <path
         id="path4605"
         d="m 14.04368,-2.81966 4.39675,-0.88277 0.29119,-0.02352 5.06542,1.82003 0,3.81184 -5.06542,1.82003 -0.29119,-0.02352 -4.39675,-0.88277 -2.1195,5.11692 3.73319,2.48476 0.22253,0.18927 2.29483,4.86875 -2.69537,2.69537 -4.86875,-2.29483 -0.18927,-0.22253 -2.48476,-3.73319 -5.11692,2.1195 0.88277,4.39675 0.02352,0.29119 -1.82003,5.06542 -3.81184,0 -1.82003,-5.06542 0.02352,-0.29119 0.88277,-4.39675 -5.11692,-2.1195 -2.48476,3.73319 -0.18927,0.22253 -4.86875,2.29483 -2.69537,-2.69537 2.29483,-4.86875 0.22253,-0.18927 3.73319,-2.48476 -2.1195,-5.11692 -4.39675,0.88277 -0.29119,0.02352 -5.06542,-1.82003 0,-3.81184 5.06542,-1.82003 0.29119,0.02352 4.39675,0.88277 2.1195,-5.11692 -3.73319,-2.48476 -0.22253,-0.18927 -2.29483,-4.86875 2.69537,-2.69537 4.86875,2.29483 0.18927,0.22253 2.48476,3.73319 5.11692,-2.1195 -0.88277,-4.39675 -0.02352,-0.29119 1.82003,-5.06542 3.81184,0 1.82003,5.06542 -0.02352,0.29119 -0.88277,4.39675 5.11692,2.1195 2.48476,-3.73319 0.18927,-0.22253 4.86875,-2.29483 2.69537,2.69537 -2.29483,4.86875 -0.22253,0.18927 -3.73319,2.48476 z"
         style="fill:#ffffff;fill-opacity:1;stroke:#ffffff;stroke-width:3.2446599;stroke-linecap:round;stroke-linejoin:round;stroke-miterlimit:4;stroke-dasharray:none;stroke-opacity:1"
         inkscape:connector-curvature="0" />
      <circle
         id="path4607"
         style="fill:#ffffff;fill-opacity:1;stroke:#ffffff;stroke-width:3.2446599;stroke-linecap:round;stroke-linejoin:round;stroke-miterlimit:4;stroke-dasharray:none;stroke-opacity:1"
         cx="0"
         cy="0"
         r="6" />
    </g>
    <circle
       style="fill:#232323;fill-opacity:1;fill-rule:nonzero;stroke:#ffffff;stroke-width:3;stroke-linecap:round;stroke-linejoin:round;stroke-miterlimit:4;stroke-dasharray:none;stroke-opacity:1"
       id="path8128-5"
       cx="-22.563063"
       cy="39.053417"
       r="5"
       transform="matrix(0.01077747,-0.99994192,0.99994192,0.01077747,0,0)" />
  </g>
</svg>
