<?xml version="1.0" encoding="UTF-8" standalone="no"?>
<!-- Created with Inkscape (http://www.inkscape.org/) -->

<svg
   xmlns:dc="http://purl.org/dc/elements/1.1/"
   xmlns:cc="http://creativecommons.org/ns#"
   xmlns:rdf="http://www.w3.org/1999/02/22-rdf-syntax-ns#"
   xmlns:svg="http://www.w3.org/2000/svg"
   xmlns="http://www.w3.org/2000/svg"
   xmlns:sodipodi="http://sodipodi.sourceforge.net/DTD/sodipodi-0.dtd"
   xmlns:inkscape="http://www.inkscape.org/namespaces/inkscape"
   width="78"
   height="104"
   viewBox="0 0 77.999997 104"
   id="svg4160"
   version="1.1"
   inkscape:version="0.91 r13725"
   sodipodi:docname="Filament.svg">
  <defs
     id="defs4162" />
  <sodipodi:namedview
     id="base"
     pagecolor="#ffffff"
     bordercolor="#666666"
     borderopacity="1.0"
     inkscape:pageopacity="0.0"
     inkscape:pageshadow="2"
     inkscape:zoom="5.6568542"
     inkscape:cx="28.740991"
     inkscape:cy="40.470552"
     inkscape:document-units="px"
     inkscape:current-layer="layer3"
     showgrid="true"
     units="px"
     showguides="false"
     inkscape:window-width="1920"
     inkscape:window-height="1137"
     inkscape:window-x="-8"
     inkscape:window-y="-8"
     inkscape:window-maximized="1">
    <inkscape:grid
       type="xygrid"
       id="grid4712" />
  </sodipodi:namedview>
  <metadata
     id="metadata4165">
    <rdf:RDF>
      <cc:Work
         rdf:about="">
        <dc:format>image/svg+xml</dc:format>
        <dc:type
           rdf:resource="http://purl.org/dc/dcmitype/StillImage" />
        <dc:title></dc:title>
      </cc:Work>
    </rdf:RDF>
  </metadata>
  <g
     inkscape:groupmode="layer"
     id="layer4"
     inkscape:label="Capa 3"
     style="display:inline">
    <path
       style="fill:#232323;fill-opacity:1;fill-rule:evenodd;stroke:none;stroke-width:2;stroke-linecap:butt;stroke-linejoin:miter;stroke-miterlimit:4;stroke-dasharray:none;stroke-opacity:1"
       d="m -0.52001176,-0.76239738 79.52479476,0 0,105.53494738 -79.52479476,0 z"
       id="path4808"
       inkscape:connector-curvature="0" />
  </g>
  <g
     inkscape:groupmode="layer"
     id="layer3"
     inkscape:label="Capa 2"
     style="display:inline">
    <path
       style="fill:none;stroke:none;stroke-width:0.53600001;stroke-linecap:round;stroke-linejoin:round;stroke-miterlimit:4;stroke-dasharray:none;stroke-opacity:1"
       d="m 28.812458,68.727914 -5.319943,-5.9375 5.28574,-0.0473 c 2.907157,-0.02602 7.653857,-0.02602 10.548223,0 l 5.262483,0.0473 -5.128555,5.926352 c -2.820705,3.259494 -5.173431,5.931369 -5.22828,5.9375 -0.05485,0.0061 -2.4937,-2.660727 -5.419668,-5.926352 z"
       id="path4720"
       inkscape:connector-curvature="0" />
    <path
       style="fill:none;stroke:none;stroke-width:0.53600001;stroke-linecap:round;stroke-linejoin:round;stroke-miterlimit:4;stroke-dasharray:none;stroke-opacity:1"
       d="m 14.242566,52.2547 0,-7.232143 19.285714,0 19.285715,0 0,7.232143 0,7.232143 -19.285715,0 -19.285714,0 0,-7.232143 z"
       id="path4722"
       inkscape:connector-curvature="0" />
    <flowRoot
       xml:space="preserve"
       id="flowRoot4795"
       style="font-style:normal;font-variant:normal;font-weight:normal;font-stretch:normal;font-size:12.5px;line-height:125%;font-family:PCBius;-inkscape-font-specification:PCBius;letter-spacing:0px;word-spacing:0px;fill:#000000;fill-opacity:1;stroke:none;stroke-width:1px;stroke-linecap:butt;stroke-linejoin:miter;stroke-opacity:1"><flowRegion
         id="flowRegion4797"><rect
           id="rect4799"
           width="70"
           height="25"
           x="5"
           y="74"
           style="font-style:normal;font-variant:normal;font-weight:normal;font-stretch:normal;font-family:PCBius;-inkscape-font-specification:PCBius" /></flowRegion><flowPara
         id="flowPara4801" /></flowRoot>    <text
       xml:space="preserve"
       style="font-style:normal;font-variant:normal;font-weight:bold;font-stretch:normal;font-size:17.5px;line-height:125%;font-family:Calibri;-inkscape-font-specification:'Calibri, Bold';text-align:start;letter-spacing:0px;word-spacing:0px;writing-mode:lr-tb;text-anchor:start;fill:#ffffff;fill-opacity:1;stroke:none;stroke-width:1px;stroke-linecap:butt;stroke-linejoin:miter;stroke-opacity:1"
       x="7.6155071"
       y="92.734238"
       id="text4803"
       sodipodi:linespacing="125%"><tspan
         sodipodi:role="line"
         id="tspan4192"
         x="7.6155071"
         y="92.734238">Filament</tspan></text>
    <path
       style="display:inline;fill:none;fill-rule:evenodd;stroke:#fbb351;stroke-width:2;stroke-linecap:butt;stroke-linejoin:round;stroke-miterlimit:4;stroke-dasharray:none;stroke-opacity:1"
       d="m 23.752599,62.146236 3.756999,5.270354 3.638377,-5.270354 z"
       id="path4710-2"
       inkscape:connector-curvature="0"
       sodipodi:nodetypes="ccc" />
    <path
       sodipodi:type="spiral"
       style="display:inline;fill:none;fill-rule:evenodd;stroke:#ffffff;stroke-width:3;stroke-linecap:butt;stroke-linejoin:round;stroke-miterlimit:4;stroke-dasharray:none;stroke-opacity:1"
       id="path4178-3"
       sodipodi:cx="-30"
       sodipodi:cy="39"
       sodipodi:expansion="1"
       sodipodi:revolution="3.1031001"
       sodipodi:radius="15.811388"
       sodipodi:argument="-18.248306"
       sodipodi:t0="0"
       d="m -30,39 c 0.632011,0.433543 -0.272595,1.065833 -0.720576,1.050444 -1.214003,-0.0417 -1.679539,-1.500029 -1.380313,-2.491597 0.535246,-1.773681 2.672376,-2.367848 4.262618,-1.71018 2.333744,0.965154 3.072795,3.859266 2.040048,6.033638 -1.376489,2.898097 -5.051141,3.784606 -7.804659,2.369916 -3.465021,-1.780242 -4.499921,-6.245348 -2.699784,-9.575679 2.180207,-4.033478 7.44086,-5.217257 11.3467,-3.029652 4.602897,2.578016 5.93586,8.637184 3.35952,13.117721 -2.974486,5.172956 -9.83405,6.655308 -14.888741,3.689388 -5.743461,-3.370068 -7.375348,-11.031299 -4.019256,-16.659762 3.765029,-6.314286 12.228824,-8.095819 18.430783,-4.349124 6.885349,4.159541 8.816611,13.42656 4.678991,20.201803 -1.758712,2.879846 -4.465402,5.124393 -7.605341,6.353087"
       transform="matrix(-0.39323461,-0.91943816,-0.91943816,0.39323461,77.054805,-3.958026)" />
    <circle
       style="display:inline;fill:#232323;fill-opacity:1;stroke:none;stroke-opacity:1"
       id="path4173"
       cx="42.845085"
       cy="47.052929"
       r="17.5" />
    <path
       sodipodi:type="spiral"
       style="fill:none;fill-rule:evenodd;stroke:#ffffff;stroke-width:3;stroke-linecap:butt;stroke-linejoin:round;stroke-miterlimit:4;stroke-dasharray:none;stroke-opacity:1"
       id="path4178"
       sodipodi:cx="-30"
       sodipodi:cy="39"
       sodipodi:expansion="1"
       sodipodi:revolution="3.1031001"
       sodipodi:radius="15.811388"
       sodipodi:argument="-18.248306"
       sodipodi:t0="0"
       d="m -30,39 c 0.632011,0.433543 -0.272595,1.065833 -0.720576,1.050444 -1.214003,-0.0417 -1.679539,-1.500029 -1.380313,-2.491597 0.535246,-1.773681 2.672376,-2.367848 4.262618,-1.71018 2.333744,0.965154 3.072795,3.859266 2.040048,6.033638 -1.376489,2.898097 -5.051141,3.784606 -7.804659,2.369916 -3.465021,-1.780242 -4.499921,-6.245348 -2.699784,-9.575679 2.180207,-4.033478 7.44086,-5.217257 11.3467,-3.029652 4.602897,2.578016 5.93586,8.637184 3.35952,13.117721 -2.974486,5.172956 -9.83405,6.655308 -14.888741,3.689388 -5.743461,-3.370068 -7.375348,-11.031299 -4.019256,-16.659762 3.765029,-6.314286 12.228824,-8.095819 18.430783,-4.349124 6.885349,4.159541 8.816611,13.42656 4.678991,20.201803 -1.758712,2.879846 -4.465402,5.124393 -7.605341,6.353087"
       transform="matrix(-0.39323461,-0.91943816,-0.91943816,0.39323461,66.997408,5.206557)" />
    <path
       style="fill:none;fill-rule:evenodd;stroke:#ffffff;stroke-width:3;stroke-linecap:butt;stroke-linejoin:round;stroke-miterlimit:4;stroke-dasharray:none;stroke-opacity:1"
       d="m 27.192357,49.098016 0,10"
       id="path4180"
       inkscape:connector-curvature="0" />
    <path
       style="fill:none;fill-rule:evenodd;stroke:#ffffff;stroke-width:3;stroke-linecap:round;stroke-linejoin:miter;stroke-miterlimit:4;stroke-dasharray:none;stroke-opacity:1"
       d="M 35.056006,22.309036 C 17.769003,37.06875 17.769003,37.06875 17.769003,37.06875"
       id="path4190"
       inkscape:connector-curvature="0" />
    <path
       style="display:inline;fill:#fbb351;fill-opacity:1;fill-rule:evenodd;stroke:#fbb351;stroke-width:2.73126698;stroke-linecap:butt;stroke-linejoin:round;stroke-miterlimit:4;stroke-dasharray:none;stroke-opacity:1"
       d="m 37.111768,26.941433 1.593686,-8.662836 -8.621843,1.255375 z"
       id="path4710-2-1"
       inkscape:connector-curvature="0"
       sodipodi:nodetypes="ccc" />
  </g>
</svg>
